<?xml version="1.0" encoding="UTF-8" standalone="no"?>
<!DOCTYPE svg PUBLIC "-//W3C//DTD SVG 1.1//EN"
 "http://www.w3.org/Graphics/SVG/1.1/DTD/svg11.dtd">
<!-- Generated by graphviz version 15.0.0 (20260523.1842)
 -->
<!-- Title: overview Pages: 1 -->
<svg width="486pt" height="296pt"
 viewBox="0.00 0.00 486.00 296.00" xmlns="http://www.w3.org/2000/svg" xmlns:xlink="http://www.w3.org/1999/xlink">
<g id="graph0" class="graph" transform="scale(1 1) rotate(0) translate(4 292)">
<title>overview</title>
<polygon fill="white" stroke="none" points="-4,4 -4,-292 482.38,-292 482.38,4 -4,4"/>
<!-- MindMap -->
<g id="node1" class="node">
<title>MindMap</title>
<path fill="#e8f4fd" stroke="black" d="M108.75,-288C108.75,-288 74,-288 74,-288 68,-288 62,-282 62,-276 62,-276 62,-264 62,-264 62,-258 68,-252 74,-252 74,-252 108.75,-252 108.75,-252 114.75,-252 120.75,-258 120.75,-264 120.75,-264 120.75,-276 120.75,-276 120.75,-282 114.75,-288 108.75,-288"/>
<text xml:space="preserve" text-anchor="middle" x="91.38" y="-266.68" font-family="sans-serif" font-size="11.00">MindMap</text>
</g>
<!-- NodeStyle -->
<g id="node2" class="node">
<title>NodeStyle</title>
<path fill="#e8f4fd" stroke="black" d="M52.75,-204C52.75,-204 12,-204 12,-204 6,-204 0,-198 0,-192 0,-192 0,-180 0,-180 0,-174 6,-168 12,-168 12,-168 52.75,-168 52.75,-168 58.75,-168 64.75,-174 64.75,-180 64.75,-180 64.75,-192 64.75,-192 64.75,-198 58.75,-204 52.75,-204"/>
<text xml:space="preserve" text-anchor="middle" x="32.38" y="-182.68" font-family="sans-serif" font-size="11.00">NodeStyle</text>
</g>
<!-- MindMap&#45;&gt;NodeStyle -->
<g id="edge1" class="edge">
<title>MindMap&#45;&gt;NodeStyle</title>
<path fill="none" stroke="black" d="M78.86,-251.61C70.88,-240.52 60.39,-225.94 51.39,-213.43"/>
<polygon fill="black" stroke="black" points="54.43,-211.67 45.75,-205.59 48.75,-215.76 54.43,-211.67"/>
<text xml:space="preserve" text-anchor="middle" x="74.41" y="-225.45" font-family="sans-serif" font-size="9.00">style</text>
</g>
<!-- Layout -->
<g id="node3" class="node">
<title>Layout</title>
<path fill="#e8f4fd" stroke="black" d="M124.38,-204C124.38,-204 94.38,-204 94.38,-204 88.38,-204 82.38,-198 82.38,-192 82.38,-192 82.38,-180 82.38,-180 82.38,-174 88.38,-168 94.38,-168 94.38,-168 124.38,-168 124.38,-168 130.38,-168 136.38,-174 136.38,-180 136.38,-180 136.38,-192 136.38,-192 136.38,-198 130.38,-204 124.38,-204"/>
<text xml:space="preserve" text-anchor="middle" x="109.38" y="-182.68" font-family="sans-serif" font-size="11.00">Layout</text>
</g>
<!-- MindMap&#45;&gt;Layout -->
<g id="edge2" class="edge">
<title>MindMap&#45;&gt;Layout</title>
<path fill="none" stroke="black" d="M89.99,-251.8C89.7,-242.81 90.04,-231.68 92.38,-222 92.97,-219.55 93.75,-217.06 94.65,-214.61"/>
<polygon fill="black" stroke="black" points="97.78,-216.2 98.57,-205.64 91.36,-213.4 97.78,-216.2"/>
<text xml:space="preserve" text-anchor="middle" x="104.38" y="-225.45" font-family="sans-serif" font-size="9.00">layout</text>
</g>
<!-- Node -->
<g id="node6" class="node">
<title>Node</title>
<path fill="#e8f4fd" stroke="black" d="M285.38,-204C285.38,-204 255.38,-204 255.38,-204 249.38,-204 243.38,-198 243.38,-192 243.38,-192 243.38,-180 243.38,-180 243.38,-174 249.38,-168 255.38,-168 255.38,-168 285.38,-168 285.38,-168 291.38,-168 297.38,-174 297.38,-180 297.38,-180 297.38,-192 297.38,-192 297.38,-198 291.38,-204 285.38,-204"/>
<text xml:space="preserve" text-anchor="middle" x="270.38" y="-182.68" font-family="sans-serif" font-size="11.00">Node</text>
</g>
<!-- MindMap&#45;&gt;Node -->
<g id="edge5" class="edge">
<title>MindMap&#45;&gt;Node</title>
<path fill="none" stroke="black" d="M120.93,-255.46C151.58,-241.42 199.57,-219.44 232.87,-204.18"/>
<polygon fill="black" stroke="black" points="234.11,-207.46 241.75,-200.12 231.2,-201.1 234.11,-207.46"/>
<text xml:space="preserve" text-anchor="middle" x="201.72" y="-225.45" font-family="sans-serif" font-size="9.00">build</text>
</g>
<!-- TidyTreeLayout -->
<g id="node4" class="node">
<title>TidyTreeLayout</title>
<path fill="#e8f4fd" stroke="black" d="M142.5,-120C142.5,-120 76.25,-120 76.25,-120 70.25,-120 64.25,-114 64.25,-108 64.25,-108 64.25,-96 64.25,-96 64.25,-90 70.25,-84 76.25,-84 76.25,-84 142.5,-84 142.5,-84 148.5,-84 154.5,-90 154.5,-96 154.5,-96 154.5,-108 154.5,-108 154.5,-114 148.5,-120 142.5,-120"/>
<text xml:space="preserve" text-anchor="middle" x="109.38" y="-98.67" font-family="sans-serif" font-size="11.00">TidyTreeLayout</text>
</g>
<!-- Layout&#45;&gt;TidyTreeLayout -->
<g id="edge3" class="edge">
<title>Layout&#45;&gt;TidyTreeLayout</title>
<path fill="none" stroke="black" d="M109.38,-167.61C109.38,-157.17 109.38,-143.64 109.38,-131.66"/>
<polygon fill="black" stroke="black" points="112.88,-131.88 109.38,-121.88 105.88,-131.88 112.88,-131.88"/>
<text xml:space="preserve" text-anchor="middle" x="118" y="-141.45" font-family="sans-serif" font-size="9.00">algo</text>
</g>
<!-- WrappedTree -->
<g id="node5" class="node">
<title>WrappedTree</title>
<path fill="#e8f4fd" stroke="black" d="M138,-36C138,-36 80.75,-36 80.75,-36 74.75,-36 68.75,-30 68.75,-24 68.75,-24 68.75,-12 68.75,-12 68.75,-6 74.75,0 80.75,0 80.75,0 138,0 138,0 144,0 150,-6 150,-12 150,-12 150,-24 150,-24 150,-30 144,-36 138,-36"/>
<text xml:space="preserve" text-anchor="middle" x="109.38" y="-14.68" font-family="sans-serif" font-size="11.00">WrappedTree</text>
</g>
<!-- TidyTreeLayout&#45;&gt;WrappedTree -->
<g id="edge4" class="edge">
<title>TidyTreeLayout&#45;&gt;WrappedTree</title>
<path fill="none" stroke="black" d="M109.38,-83.61C109.38,-73.17 109.38,-59.64 109.38,-47.66"/>
<polygon fill="black" stroke="black" points="112.88,-47.88 109.38,-37.88 105.88,-47.88 112.88,-47.88"/>
<text xml:space="preserve" text-anchor="middle" x="119.12" y="-57.45" font-family="sans-serif" font-size="9.00">wrap</text>
</g>
<!-- InsertNode -->
<g id="node7" class="node">
<title>InsertNode</title>
<path fill="#e8f4fd" stroke="black" d="M200.38,-288C200.38,-288 154.38,-288 154.38,-288 148.38,-288 142.38,-282 142.38,-276 142.38,-276 142.38,-264 142.38,-264 142.38,-258 148.38,-252 154.38,-252 154.38,-252 200.38,-252 200.38,-252 206.38,-252 212.38,-258 212.38,-264 212.38,-264 212.38,-276 212.38,-276 212.38,-282 206.38,-288 200.38,-288"/>
<text xml:space="preserve" text-anchor="middle" x="177.38" y="-266.68" font-family="sans-serif" font-size="11.00">InsertNode</text>
</g>
<!-- InsertNode&#45;&gt;Node -->
<g id="edge6" class="edge">
<title>InsertNode&#45;&gt;Node</title>
<path fill="none" stroke="black" d="M197.1,-251.61C210.17,-240.09 227.52,-224.79 242.06,-211.97"/>
<polygon fill="black" stroke="black" points="244.36,-214.6 249.55,-205.37 239.73,-209.35 244.36,-214.6"/>
<text xml:space="preserve" text-anchor="middle" x="240.32" y="-225.45" font-family="sans-serif" font-size="9.00">insert</text>
</g>
<!-- RemoveNode -->
<g id="node8" class="node">
<title>RemoveNode</title>
<path fill="#e8f4fd" stroke="black" d="M298.62,-288C298.62,-288 242.12,-288 242.12,-288 236.12,-288 230.12,-282 230.12,-276 230.12,-276 230.12,-264 230.12,-264 230.12,-258 236.12,-252 242.12,-252 242.12,-252 298.62,-252 298.62,-252 304.62,-252 310.62,-258 310.62,-264 310.62,-264 310.62,-276 310.62,-276 310.62,-282 304.62,-288 298.62,-288"/>
<text xml:space="preserve" text-anchor="middle" x="270.38" y="-266.68" font-family="sans-serif" font-size="11.00">RemoveNode</text>
</g>
<!-- RemoveNode&#45;&gt;Node -->
<g id="edge7" class="edge">
<title>RemoveNode&#45;&gt;Node</title>
<path fill="none" stroke="black" d="M270.38,-251.61C270.38,-241.17 270.38,-227.64 270.38,-215.66"/>
<polygon fill="black" stroke="black" points="273.88,-215.88 270.38,-205.88 266.88,-215.88 273.88,-215.88"/>
<text xml:space="preserve" text-anchor="middle" x="284.62" y="-225.45" font-family="sans-serif" font-size="9.00">remove</text>
</g>
<!-- ScaleNode -->
<g id="node9" class="node">
<title>ScaleNode</title>
<path fill="#e8f4fd" stroke="black" d="M383.88,-288C383.88,-288 340.88,-288 340.88,-288 334.88,-288 328.88,-282 328.88,-276 328.88,-276 328.88,-264 328.88,-264 328.88,-258 334.88,-252 340.88,-252 340.88,-252 383.88,-252 383.88,-252 389.88,-252 395.88,-258 395.88,-264 395.88,-264 395.88,-276 395.88,-276 395.88,-282 389.88,-288 383.88,-288"/>
<text xml:space="preserve" text-anchor="middle" x="362.38" y="-266.68" font-family="sans-serif" font-size="11.00">ScaleNode</text>
</g>
<!-- ScaleNode&#45;&gt;Node -->
<g id="edge8" class="edge">
<title>ScaleNode&#45;&gt;Node</title>
<path fill="none" stroke="black" d="M342.86,-251.61C329.93,-240.09 312.77,-224.79 298.39,-211.97"/>
<polygon fill="black" stroke="black" points="300.78,-209.41 290.99,-205.37 296.12,-214.64 300.78,-209.41"/>
<text xml:space="preserve" text-anchor="middle" x="331.63" y="-225.45" font-family="sans-serif" font-size="9.00">scale</text>
</g>
<!-- AlterNode -->
<g id="node10" class="node">
<title>AlterNode</title>
<path fill="#e8f4fd" stroke="black" d="M466.38,-288C466.38,-288 426.38,-288 426.38,-288 420.38,-288 414.38,-282 414.38,-276 414.38,-276 414.38,-264 414.38,-264 414.38,-258 420.38,-252 426.38,-252 426.38,-252 466.38,-252 466.38,-252 472.38,-252 478.38,-258 478.38,-264 478.38,-264 478.38,-276 478.38,-276 478.38,-282 472.38,-288 466.38,-288"/>
<text xml:space="preserve" text-anchor="middle" x="446.38" y="-266.68" font-family="sans-serif" font-size="11.00">AlterNode</text>
</g>
<!-- AlterNode&#45;&gt;Node -->
<g id="edge9" class="edge">
<title>AlterNode&#45;&gt;Node</title>
<path fill="none" stroke="black" d="M414.09,-253.96C384.14,-240 339.54,-219.23 307.99,-204.52"/>
<polygon fill="black" stroke="black" points="309.74,-201.48 299.2,-200.43 306.78,-207.83 309.74,-201.48"/>
<text xml:space="preserve" text-anchor="middle" x="377.54" y="-225.45" font-family="sans-serif" font-size="9.00">alter</text>
</g>
</g>
</svg>
