<?xml version="1.0" encoding="UTF-8" standalone="no"?>
<!DOCTYPE svg PUBLIC "-//W3C//DTD SVG 1.1//EN"
 "http://www.w3.org/Graphics/SVG/1.1/DTD/svg11.dtd">
<!-- Generated by graphviz version 15.0.0 (20260523.1842)
 -->
<!-- Title: mindmap_arch Pages: 1 -->
<svg width="509pt" height="98pt"
 viewBox="0.00 0.00 509.00 98.00" xmlns="http://www.w3.org/2000/svg" xmlns:xlink="http://www.w3.org/1999/xlink">
<g id="graph0" class="graph" transform="scale(1 1) rotate(0) translate(4 94)">
<title>mindmap_arch</title>
<polygon fill="white" stroke="none" points="-4,4 -4,-94 505.25,-94 505.25,4 -4,4"/>
<!-- MindMap -->
<g id="node1" class="node">
<title>MindMap</title>
<path fill="#f8f8f8" stroke="black" d="M46.75,-55C46.75,-55 12,-55 12,-55 6,-55 0,-49 0,-43 0,-43 0,-31 0,-31 0,-25 6,-19 12,-19 12,-19 46.75,-19 46.75,-19 52.75,-19 58.75,-25 58.75,-31 58.75,-31 58.75,-43 58.75,-43 58.75,-49 52.75,-55 46.75,-55"/>
<text xml:space="preserve" text-anchor="middle" x="29.38" y="-33.67" font-family="sans-serif" font-size="11.00">MindMap</text>
</g>
<!-- Layout -->
<g id="node2" class="node">
<title>Layout</title>
<path fill="#f8f8f8" stroke="black" d="M170.62,-90C170.62,-90 140.62,-90 140.62,-90 134.62,-90 128.62,-84 128.62,-78 128.62,-78 128.62,-66 128.62,-66 128.62,-60 134.62,-54 140.62,-54 140.62,-54 170.62,-54 170.62,-54 176.62,-54 182.62,-60 182.62,-66 182.62,-66 182.62,-78 182.62,-78 182.62,-84 176.62,-90 170.62,-90"/>
<text xml:space="preserve" text-anchor="middle" x="155.62" y="-68.67" font-family="sans-serif" font-size="11.00">Layout</text>
</g>
<!-- MindMap&#45;&gt;Layout -->
<g id="edge1" class="edge">
<title>MindMap&#45;&gt;Layout</title>
<path fill="none" stroke="black" d="M59.19,-45.12C76.53,-50 98.78,-56.27 117.43,-61.52"/>
<polygon fill="black" stroke="black" points="116.47,-64.89 127.05,-64.23 118.37,-58.15 116.47,-64.89"/>
<text xml:space="preserve" text-anchor="middle" x="91" y="-59.33" font-family="sans-serif" font-size="14.00">使用</text>
</g>
<!-- NodeStyle -->
<g id="node3" class="node">
<title>NodeStyle</title>
<path fill="#f8f8f8" stroke="black" d="M176,-36C176,-36 135.25,-36 135.25,-36 129.25,-36 123.25,-30 123.25,-24 123.25,-24 123.25,-12 123.25,-12 123.25,-6 129.25,0 135.25,0 135.25,0 176,0 176,0 182,0 188,-6 188,-12 188,-12 188,-24 188,-24 188,-30 182,-36 176,-36"/>
<text xml:space="preserve" text-anchor="middle" x="155.62" y="-14.68" font-family="sans-serif" font-size="11.00">NodeStyle</text>
</g>
<!-- MindMap&#45;&gt;NodeStyle -->
<g id="edge2" class="edge">
<title>MindMap&#45;&gt;NodeStyle</title>
<path fill="none" stroke="black" d="M59.24,-30.32C65.02,-29.11 71.06,-27.94 76.75,-27 88.13,-25.12 100.51,-23.5 111.98,-22.17"/>
<polygon fill="black" stroke="black" points="112.02,-25.69 121.57,-21.11 111.25,-18.73 112.02,-25.69"/>
<text xml:space="preserve" text-anchor="middle" x="91" y="-28.7" font-family="sans-serif" font-size="14.00">配置</text>
</g>
<!-- tidy_tree_layout -->
<g id="node4" class="node">
<title>tidy_tree_layout</title>
<path fill="#f8f8f8" stroke="black" d="M334.5,-90C334.5,-90 264.5,-90 264.5,-90 258.5,-90 252.5,-84 252.5,-78 252.5,-78 252.5,-66 252.5,-66 252.5,-60 258.5,-54 264.5,-54 264.5,-54 334.5,-54 334.5,-54 340.5,-54 346.5,-60 346.5,-66 346.5,-66 346.5,-78 346.5,-78 346.5,-84 340.5,-90 334.5,-90"/>
<text xml:space="preserve" text-anchor="middle" x="299.5" y="-68.67" font-family="sans-serif" font-size="11.00">tidy_tree_layout</text>
</g>
<!-- Layout&#45;&gt;tidy_tree_layout -->
<g id="edge3" class="edge">
<title>Layout&#45;&gt;tidy_tree_layout</title>
<path fill="none" stroke="black" d="M182.98,-72C199.26,-72 220.82,-72 240.9,-72"/>
<polygon fill="black" stroke="black" points="240.67,-75.5 250.67,-72 240.67,-68.5 240.67,-75.5"/>
<text xml:space="preserve" text-anchor="middle" x="220.25" y="-73.7" font-family="sans-serif" font-size="14.00">调用</text>
</g>
<!-- TidyTreeLayout -->
<g id="node5" class="node">
<title>TidyTreeLayout</title>
<path fill="#f8f8f8" stroke="black" d="M489.25,-90C489.25,-90 423,-90 423,-90 417,-90 411,-84 411,-78 411,-78 411,-66 411,-66 411,-60 417,-54 423,-54 423,-54 489.25,-54 489.25,-54 495.25,-54 501.25,-60 501.25,-66 501.25,-66 501.25,-78 501.25,-78 501.25,-84 495.25,-90 489.25,-90"/>
<text xml:space="preserve" text-anchor="middle" x="456.12" y="-68.67" font-family="sans-serif" font-size="11.00">TidyTreeLayout</text>
</g>
<!-- tidy_tree_layout&#45;&gt;TidyTreeLayout -->
<g id="edge4" class="edge">
<title>tidy_tree_layout&#45;&gt;TidyTreeLayout</title>
<path fill="none" stroke="black" d="M346.89,-72C363.46,-72 382.29,-72 399.55,-72"/>
<polygon fill="black" stroke="black" points="399.11,-75.5 409.11,-72 399.11,-68.5 399.11,-75.5"/>
<text xml:space="preserve" text-anchor="middle" x="378.75" y="-73.7" font-family="sans-serif" font-size="14.00">实现</text>
</g>
</g>
</svg>
