<?xml version="1.0" encoding="UTF-8" standalone="no"?>
<!DOCTYPE svg PUBLIC "-//W3C//DTD SVG 1.1//EN"
 "http://www.w3.org/Graphics/SVG/1.1/DTD/svg11.dtd">
<!-- Generated by graphviz version 15.0.0 (20260523.1842)
 -->
<!-- Title: mindmap_arch Pages: 1 -->
<svg width="506pt" height="98pt"
 viewBox="0.00 0.00 506.00 98.00" xmlns="http://www.w3.org/2000/svg" xmlns:xlink="http://www.w3.org/1999/xlink">
<g id="graph0" class="graph" transform="scale(1 1) rotate(0) translate(4 94)">
<title>mindmap_arch</title>
<polygon fill="white" stroke="none" points="-4,4 -4,-94 502.25,-94 502.25,4 -4,4"/>
<!-- MindMap -->
<g id="node1" class="node">
<title>MindMap</title>
<path fill="#f8f8f8" stroke="black" d="M46.75,-56C46.75,-56 12,-56 12,-56 6,-56 0,-50 0,-44 0,-44 0,-32 0,-32 0,-26 6,-20 12,-20 12,-20 46.75,-20 46.75,-20 52.75,-20 58.75,-26 58.75,-32 58.75,-32 58.75,-44 58.75,-44 58.75,-50 52.75,-56 46.75,-56"/>
<text xml:space="preserve" text-anchor="middle" x="29.38" y="-34.67" font-family="sans-serif" font-size="11.00">MindMap</text>
</g>
<!-- Layout -->
<g id="node2" class="node">
<title>Layout</title>
<path fill="#f8f8f8" stroke="black" d="M178.88,-90C178.88,-90 148.88,-90 148.88,-90 142.88,-90 136.88,-84 136.88,-78 136.88,-78 136.88,-66 136.88,-66 136.88,-60 142.88,-54 148.88,-54 148.88,-54 178.88,-54 178.88,-54 184.88,-54 190.88,-60 190.88,-66 190.88,-66 190.88,-78 190.88,-78 190.88,-84 184.88,-90 178.88,-90"/>
<text xml:space="preserve" text-anchor="middle" x="163.88" y="-68.67" font-family="sans-serif" font-size="11.00">Layout</text>
</g>
<!-- MindMap&#45;&gt;Layout -->
<g id="edge1" class="edge">
<title>MindMap&#45;&gt;Layout</title>
<path fill="none" stroke="black" d="M59.13,-45.38C78.52,-50.35 104.31,-56.97 125.32,-62.36"/>
<polygon fill="black" stroke="black" points="124.41,-65.74 134.97,-64.84 126.15,-58.96 124.41,-65.74"/>
<text xml:space="preserve" text-anchor="middle" x="95.12" y="-63" font-family="sans-serif" font-size="14.00">use</text>
</g>
<!-- NodeStyle -->
<g id="node3" class="node">
<title>NodeStyle</title>
<path fill="#f8f8f8" stroke="black" d="M184.25,-36C184.25,-36 143.5,-36 143.5,-36 137.5,-36 131.5,-30 131.5,-24 131.5,-24 131.5,-12 131.5,-12 131.5,-6 137.5,0 143.5,0 143.5,0 184.25,0 184.25,0 190.25,0 196.25,-6 196.25,-12 196.25,-12 196.25,-24 196.25,-24 196.25,-30 190.25,-36 184.25,-36"/>
<text xml:space="preserve" text-anchor="middle" x="163.88" y="-14.68" font-family="sans-serif" font-size="11.00">NodeStyle</text>
</g>
<!-- MindMap&#45;&gt;NodeStyle -->
<g id="edge2" class="edge">
<title>MindMap&#45;&gt;NodeStyle</title>
<path fill="none" stroke="black" d="M59.15,-29.6C64.94,-28.13 71.01,-26.76 76.75,-25.75 90.73,-23.29 106.13,-21.59 119.99,-20.43"/>
<polygon fill="black" stroke="black" points="120,-23.94 129.7,-19.68 119.46,-16.96 120,-23.94"/>
<text xml:space="preserve" text-anchor="middle" x="95.12" y="-29.7" font-family="sans-serif" font-size="14.00">config</text>
</g>
<!-- tidy_tree_layout -->
<g id="node4" class="node">
<title>tidy_tree_layout</title>
<path fill="#f8f8f8" stroke="black" d="M334.5,-90C334.5,-90 264.5,-90 264.5,-90 258.5,-90 252.5,-84 252.5,-78 252.5,-78 252.5,-66 252.5,-66 252.5,-60 258.5,-54 264.5,-54 264.5,-54 334.5,-54 334.5,-54 340.5,-54 346.5,-60 346.5,-66 346.5,-66 346.5,-78 346.5,-78 346.5,-84 340.5,-90 334.5,-90"/>
<text xml:space="preserve" text-anchor="middle" x="299.5" y="-68.67" font-family="sans-serif" font-size="11.00">tidy_tree_layout</text>
</g>
<!-- Layout&#45;&gt;tidy_tree_layout -->
<g id="edge3" class="edge">
<title>Layout&#45;&gt;tidy_tree_layout</title>
<path fill="none" stroke="black" d="M191.28,-72C205.5,-72 223.64,-72 240.94,-72"/>
<polygon fill="black" stroke="black" points="240.62,-75.5 250.62,-72 240.62,-68.5 240.62,-75.5"/>
<text xml:space="preserve" text-anchor="middle" x="224.38" y="-75.95" font-family="sans-serif" font-size="14.00">call</text>
</g>
<!-- TidyTreeLayout -->
<g id="node5" class="node">
<title>TidyTreeLayout</title>
<path fill="#f8f8f8" stroke="black" d="M486.25,-90C486.25,-90 420,-90 420,-90 414,-90 408,-84 408,-78 408,-78 408,-66 408,-66 408,-60 414,-54 420,-54 420,-54 486.25,-54 486.25,-54 492.25,-54 498.25,-60 498.25,-66 498.25,-66 498.25,-78 498.25,-78 498.25,-84 492.25,-90 486.25,-90"/>
<text xml:space="preserve" text-anchor="middle" x="453.12" y="-68.67" font-family="sans-serif" font-size="11.00">TidyTreeLayout</text>
</g>
<!-- tidy_tree_layout&#45;&gt;TidyTreeLayout -->
<g id="edge4" class="edge">
<title>tidy_tree_layout&#45;&gt;TidyTreeLayout</title>
<path fill="none" stroke="black" d="M346.82,-72C362.53,-72 380.24,-72 396.59,-72"/>
<polygon fill="black" stroke="black" points="396.14,-75.5 406.14,-72 396.14,-68.5 396.14,-75.5"/>
<text xml:space="preserve" text-anchor="middle" x="377.25" y="-75.95" font-family="sans-serif" font-size="14.00">impl</text>
</g>
</g>
</svg>
