<?xml version="1.0" encoding="UTF-8" standalone="no"?>
<!DOCTYPE svg PUBLIC "-//W3C//DTD SVG 1.1//EN"
 "http://www.w3.org/Graphics/SVG/1.1/DTD/svg11.dtd">
<!-- Generated by graphviz version 15.0.0 (20260523.1842)
 -->
<!-- Title: anim_hierarchy Pages: 1 -->
<svg width="344pt" height="260pt"
 viewBox="0.00 0.00 344.00 260.00" xmlns="http://www.w3.org/2000/svg" xmlns:xlink="http://www.w3.org/1999/xlink">
<g id="graph0" class="graph" transform="scale(1 1) rotate(0) translate(4 256)">
<title>anim_hierarchy</title>
<polygon fill="white" stroke="none" points="-4,4 -4,-256 340,-256 340,4 -4,4"/>
<!-- AnimationGroup -->
<g id="node1" class="node">
<title>AnimationGroup</title>
<path fill="#f8f8f8" stroke="black" d="M208.62,-252C208.62,-252 139.38,-252 139.38,-252 133.38,-252 127.38,-246 127.38,-240 127.38,-240 127.38,-228 127.38,-228 127.38,-222 133.38,-216 139.38,-216 139.38,-216 208.62,-216 208.62,-216 214.62,-216 220.62,-222 220.62,-228 220.62,-228 220.62,-240 220.62,-240 220.62,-246 214.62,-252 208.62,-252"/>
<text xml:space="preserve" text-anchor="middle" x="174" y="-230.68" font-family="sans-serif" font-size="11.00">AnimationGroup</text>
</g>
<!-- AbstractLayoutAnimation -->
<g id="node2" class="node">
<title>AbstractLayoutAnimation</title>
<path fill="#f8f8f8" stroke="black" d="M230.38,-180C230.38,-180 117.62,-180 117.62,-180 111.62,-180 105.62,-174 105.62,-168 105.62,-168 105.62,-156 105.62,-156 105.62,-150 111.62,-144 117.62,-144 117.62,-144 230.38,-144 230.38,-144 236.38,-144 242.38,-150 242.38,-156 242.38,-156 242.38,-168 242.38,-168 242.38,-174 236.38,-180 230.38,-180"/>
<text xml:space="preserve" text-anchor="middle" x="174" y="-158.68" font-family="sans-serif" font-size="11.00">AbstractLayoutAnimation</text>
</g>
<!-- AnimationGroup&#45;&gt;AbstractLayoutAnimation -->
<g id="edge1" class="edge">
<title>AnimationGroup&#45;&gt;AbstractLayoutAnimation</title>
<path fill="none" stroke="black" d="M174,-215.7C174,-208.41 174,-199.73 174,-191.54"/>
<polygon fill="black" stroke="black" points="177.5,-191.62 174,-181.62 170.5,-191.62 177.5,-191.62"/>
</g>
<!-- LayoutAnimation -->
<g id="node3" class="node">
<title>LayoutAnimation</title>
<path fill="#f8f8f8" stroke="black" d="M210.12,-108C210.12,-108 137.88,-108 137.88,-108 131.88,-108 125.88,-102 125.88,-96 125.88,-96 125.88,-84 125.88,-84 125.88,-78 131.88,-72 137.88,-72 137.88,-72 210.12,-72 210.12,-72 216.12,-72 222.12,-78 222.12,-84 222.12,-84 222.12,-96 222.12,-96 222.12,-102 216.12,-108 210.12,-108"/>
<text xml:space="preserve" text-anchor="middle" x="174" y="-86.67" font-family="sans-serif" font-size="11.00">LayoutAnimation</text>
</g>
<!-- AbstractLayoutAnimation&#45;&gt;LayoutAnimation -->
<g id="edge2" class="edge">
<title>AbstractLayoutAnimation&#45;&gt;LayoutAnimation</title>
<path fill="none" stroke="black" d="M174,-143.7C174,-136.41 174,-127.73 174,-119.54"/>
<polygon fill="black" stroke="black" points="177.5,-119.62 174,-109.62 170.5,-119.62 177.5,-119.62"/>
</g>
<!-- InsertNode -->
<g id="node4" class="node">
<title>InsertNode</title>
<path fill="#f8f8f8" stroke="black" d="M58,-36C58,-36 12,-36 12,-36 6,-36 0,-30 0,-24 0,-24 0,-12 0,-12 0,-6 6,0 12,0 12,0 58,0 58,0 64,0 70,-6 70,-12 70,-12 70,-24 70,-24 70,-30 64,-36 58,-36"/>
<text xml:space="preserve" text-anchor="middle" x="35" y="-14.68" font-family="sans-serif" font-size="11.00">InsertNode</text>
</g>
<!-- LayoutAnimation&#45;&gt;InsertNode -->
<g id="edge3" class="edge">
<title>LayoutAnimation&#45;&gt;InsertNode</title>
<path fill="none" stroke="black" d="M139.28,-71.52C121.15,-62.39 98.77,-51.11 79.39,-41.35"/>
<polygon fill="black" stroke="black" points="81.13,-38.31 70.63,-36.94 77.98,-44.57 81.13,-38.31"/>
</g>
<!-- RemoveNode -->
<g id="node5" class="node">
<title>RemoveNode</title>
<path fill="#f8f8f8" stroke="black" d="M156.25,-36C156.25,-36 99.75,-36 99.75,-36 93.75,-36 87.75,-30 87.75,-24 87.75,-24 87.75,-12 87.75,-12 87.75,-6 93.75,0 99.75,0 99.75,0 156.25,0 156.25,0 162.25,0 168.25,-6 168.25,-12 168.25,-12 168.25,-24 168.25,-24 168.25,-30 162.25,-36 156.25,-36"/>
<text xml:space="preserve" text-anchor="middle" x="128" y="-14.68" font-family="sans-serif" font-size="11.00">RemoveNode</text>
</g>
<!-- LayoutAnimation&#45;&gt;RemoveNode -->
<g id="edge4" class="edge">
<title>LayoutAnimation&#45;&gt;RemoveNode</title>
<path fill="none" stroke="black" d="M162.63,-71.7C157.45,-63.81 151.2,-54.3 145.44,-45.55"/>
<polygon fill="black" stroke="black" points="148.49,-43.8 140.07,-37.37 142.64,-47.65 148.49,-43.8"/>
</g>
<!-- ScaleNode -->
<g id="node6" class="node">
<title>ScaleNode</title>
<path fill="#f8f8f8" stroke="black" d="M241.5,-36C241.5,-36 198.5,-36 198.5,-36 192.5,-36 186.5,-30 186.5,-24 186.5,-24 186.5,-12 186.5,-12 186.5,-6 192.5,0 198.5,0 198.5,0 241.5,0 241.5,0 247.5,0 253.5,-6 253.5,-12 253.5,-12 253.5,-24 253.5,-24 253.5,-30 247.5,-36 241.5,-36"/>
<text xml:space="preserve" text-anchor="middle" x="220" y="-14.68" font-family="sans-serif" font-size="11.00">ScaleNode</text>
</g>
<!-- LayoutAnimation&#45;&gt;ScaleNode -->
<g id="edge5" class="edge">
<title>LayoutAnimation&#45;&gt;ScaleNode</title>
<path fill="none" stroke="black" d="M185.37,-71.7C190.55,-63.81 196.8,-54.3 202.56,-45.55"/>
<polygon fill="black" stroke="black" points="205.36,-47.65 207.93,-37.37 199.51,-43.8 205.36,-47.65"/>
</g>
<!-- AlterNode -->
<g id="node7" class="node">
<title>AlterNode</title>
<path fill="#f8f8f8" stroke="black" d="M324,-36C324,-36 284,-36 284,-36 278,-36 272,-30 272,-24 272,-24 272,-12 272,-12 272,-6 278,0 284,0 284,0 324,0 324,0 330,0 336,-6 336,-12 336,-12 336,-24 336,-24 336,-30 330,-36 324,-36"/>
<text xml:space="preserve" text-anchor="middle" x="304" y="-14.68" font-family="sans-serif" font-size="11.00">AlterNode</text>
</g>
<!-- LayoutAnimation&#45;&gt;AlterNode -->
<g id="edge6" class="edge">
<title>LayoutAnimation&#45;&gt;AlterNode</title>
<path fill="none" stroke="black" d="M206.47,-71.52C223.27,-62.47 243.98,-51.32 261.98,-41.62"/>
<polygon fill="black" stroke="black" points="263.47,-44.8 270.61,-36.98 260.15,-38.64 263.47,-44.8"/>
</g>
</g>
</svg>
